<svg xmlns="http://www.w3.org/2000/svg" viewBox="0 0 1000 760" width="1000" height="760">
  <defs>
    <linearGradient id="sky" x1="0" y1="0" x2="0" y2="1">
      <stop offset="0%" stop-color="#0b3d63"/>
      <stop offset="100%" stop-color="#1470b8"/>
    </linearGradient>
  </defs>
  <rect width="1000" height="760" fill="url(#sky)"/>
  <circle cx="554" cy="318" r="24" fill="#ffffff" opacity="0.10"/>
<circle cx="929" cy="299" r="15" fill="#ffffff" opacity="0.10"/>
<circle cx="504" cy="145" r="16" fill="#ffffff" opacity="0.10"/>
<circle cx="360" cy="105" r="21" fill="#ffffff" opacity="0.10"/>
<circle cx="850" cy="70" r="14" fill="#ffffff" opacity="0.10"/>
<circle cx="181" cy="312" r="11" fill="#ffffff" opacity="0.10"/>
  <path d="M0,547 C 250,494 750,623 1000,532 L 1000,760 L 0,760 Z" fill="#f4ede1"/>
  <rect x="288.0" y="288.8" width="144.0" height="182.4" rx="14.399999999999999" fill="#fff" stroke="#1470b8" stroke-width="7.199999999999999"/><rect x="312.0" y="332.0" width="24.0" height="24.0" rx="4.8" fill="#2fb380"/><rect x="350.4" y="339.2" width="86.39999999999999" height="9.6" fill="#082a46" opacity="0.5"/><rect x="312.0" y="375.2" width="24.0" height="24.0" rx="4.8" fill="#2fb380"/><rect x="350.4" y="382.4" width="86.39999999999999" height="9.6" fill="#082a46" opacity="0.5"/><rect x="312.0" y="418.4" width="24.0" height="24.0" rx="4.8" fill="#2fb380"/><rect x="350.4" y="425.59999999999997" width="86.39999999999999" height="9.6" fill="#082a46" opacity="0.5"/><rect x="609.2" y="570.0" width="10*2.2" height="1" fill="none"/>
<rect x="609.2" y="574.4" width="24.2" height="74.8" rx="11.0" fill="#082a46"/>
<rect x="646.6" y="574.4" width="24.2" height="74.8" rx="11.0" fill="#082a46"/>
<rect x="596.0" y="482.0" width="88.0" height="101.2" rx="35.2" fill="#2fb380"/>
<rect x="574.0" y="490.8" width="26.4" height="70.4" rx="13.2" fill="#2fb380"/>
<rect x="679.6" y="490.8" width="26.4" height="70.4" rx="13.2" fill="#2fb380"/>
<circle cx="587.2" cy="565.6" r="13.2" fill="#d9a066"/>
<circle cx="692.8" cy="565.6" r="13.2" fill="#d9a066"/>
<rect x="626.8" y="455.6" width="26.4" height="30.8" fill="#d9a066"/>
<circle cx="640.0" cy="424.8" r="44.0" fill="#d9a066"/>
<path d="M 596.0 420.4 A 44.0 44.0 0 0 1 684.0 420.4 L 684.0 402.8 A 44.0 44.0 0 0 0 596.0 402.8 Z" fill="#082a46"/>
</svg>