<svg xmlns="http://www.w3.org/2000/svg" viewBox="0 0 1000 760" width="1000" height="760">
  <defs>
    <linearGradient id="sky" x1="0" y1="0" x2="0" y2="1">
      <stop offset="0%" stop-color="#0b3d63"/>
      <stop offset="100%" stop-color="#082a46"/>
    </linearGradient>
  </defs>
  <rect width="1000" height="760" fill="url(#sky)"/>
  <circle cx="554" cy="318" r="24" fill="#ffffff" opacity="0.10"/>
<circle cx="929" cy="299" r="15" fill="#ffffff" opacity="0.10"/>
<circle cx="504" cy="145" r="16" fill="#ffffff" opacity="0.10"/>
<circle cx="360" cy="105" r="21" fill="#ffffff" opacity="0.10"/>
<circle cx="850" cy="70" r="14" fill="#ffffff" opacity="0.10"/>
<circle cx="181" cy="312" r="11" fill="#ffffff" opacity="0.10"/>
<circle cx="711" cy="35" r="20" fill="#ffffff" opacity="0.10"/>
<circle cx="152" cy="31" r="40" fill="#ffffff" opacity="0.10"/>
  <path d="M0,547 C 250,494 750,623 1000,532 L 1000,760 L 0,760 Z" fill="#2fb380"/>
  <rect x="372.0" y="279.20000000000005" width="256.0" height="172.8" rx="25.6" fill="#ffffff"/>
  <rect x="448.8" y="240.8" width="102.4" height="44.800000000000004" rx="12.8" fill="#ffffff"/>
  <circle cx="500.0" cy="368.8" r="57.6" fill="#082a46"/>
  <circle cx="500.0" cy="368.8" r="35.2" fill="#22b6d9"/>
</svg>