<svg xmlns="http://www.w3.org/2000/svg" xmlns:xlink="http://www.w3.org/1999/xlink" width="1000" zoomAndPan="magnify" viewBox="0 0 750 749.999995" height="1000" preserveAspectRatio="xMidYMid meet" version="1.0"><defs><clipPath id="70f2c8b222"><path d="M 27.078125 101 L 721 101 L 721 650.207031 L 27.078125 650.207031 Z M 27.078125 101 " clip-rule="nonzero"/></clipPath></defs><g clip-path="url(#70f2c8b222)"><path fill="#ffffff" d="M 167.191406 544.355469 C 166.414062 541.351562 167.304688 537.570312 169.976562 532.785156 C 179.433594 511.085938 191.339844 493.28125 205.695312 479.371094 C 219.9375 465.464844 236.628906 455.558594 255.542969 449.550781 C 258.992188 448.328125 261.554688 446.4375 263.332031 443.988281 C 265.113281 441.539062 266.113281 438.535156 266.226562 434.863281 L 266.226562 434.195312 C 266.113281 432.191406 266.78125 430.523438 268.007812 429.300781 C 269.230469 428.1875 271.121094 427.40625 273.570312 427.183594 L 275.015625 427.074219 L 415.777344 427.074219 C 418.78125 427.074219 421.230469 427.40625 422.898438 428.296875 C 424.011719 428.742188 424.902344 429.523438 425.457031 430.414062 C 426.015625 431.300781 426.347656 432.414062 426.347656 433.640625 C 426.460938 435.53125 425.792969 437.980469 424.457031 440.648438 L 403.203125 482.265625 C 401.421875 488.164062 401.644531 494.394531 403.425781 500.070312 C 405.207031 505.746094 408.769531 510.972656 413.550781 514.867188 C 418.449219 518.761719 424.347656 520.878906 430.242188 521.433594 C 436.140625 521.878906 442.261719 520.65625 447.601562 517.652344 L 473.640625 435.308594 C 477.535156 427.519531 476.980469 421.289062 472.082031 416.726562 C 467.074219 412.050781 457.726562 409.046875 443.929688 407.601562 C 444.152344 410.050781 443.707031 412.273438 442.929688 414.054688 C 441.925781 416.058594 440.371094 417.503906 438.253906 418.617188 C 437.699219 418.839844 284.585938 418.617188 269.566406 418.617188 C 267.339844 418.949219 265.113281 418.507812 263.109375 417.617188 C 261.109375 416.613281 259.328125 415.167969 258.101562 413.277344 C 256.769531 411.273438 256.101562 409.160156 256.101562 406.933594 C 255.988281 404.707031 256.546875 402.484375 257.660156 400.480469 C 258.769531 398.476562 260.441406 396.808594 262.332031 395.804688 C 264.222656 394.695312 266.449219 394.136719 268.785156 394.25 L 380.058594 393.359375 C 378.054688 392.800781 376.277344 392.132812 374.496094 391.464844 C 366.484375 388.128906 361.03125 383.121094 358.25 376.554688 C 355.355469 369.992188 355.132812 361.867188 357.359375 352.1875 C 358.472656 347.734375 360.03125 342.953125 362.144531 337.945312 C 371.492188 304.339844 382.617188 276.074219 395.304688 253.152344 C 408.101562 230.230469 422.453125 212.648438 438.589844 200.410156 L 438.699219 200.296875 C 455.613281 190.285156 469.523438 190.394531 480.539062 200.519531 C 491.445312 210.535156 499.34375 230.566406 504.351562 260.496094 L 504.351562 260.609375 C 504.242188 268.285156 505.464844 274.074219 508.023438 278.191406 C 510.472656 282.308594 514.144531 284.644531 519.261719 285.3125 C 523.492188 286.3125 529.945312 287.425781 538.511719 288.648438 C 546.96875 289.984375 557.539062 291.429688 570.226562 293.101562 C 571.5625 289.984375 574.230469 287.203125 578.238281 284.976562 C 582.242188 282.753906 587.585938 280.972656 594.261719 279.636719 C 595.375 276.632812 595.597656 273.851562 594.707031 271.179688 C 593.925781 268.507812 592.148438 265.949219 589.363281 263.390625 C 585.359375 264.058594 581.464844 263.167969 578.238281 261.164062 C 575.011719 259.050781 572.453125 255.824219 571.339844 251.816406 C 570.335938 247.8125 570.894531 243.804688 572.5625 240.355469 C 574.34375 236.90625 577.347656 234.125 581.242188 232.679688 C 585.136719 231.121094 589.253906 231.34375 592.8125 232.789062 C 596.375 234.125 599.492188 236.90625 601.269531 240.578125 C 603.050781 244.363281 603.273438 248.480469 602.273438 252.152344 C 601.160156 255.710938 598.933594 258.828125 595.597656 261.054688 C 597.042969 262.613281 598.15625 264.726562 599.15625 267.171875 C 600.160156 269.84375 601.046875 272.960938 601.605469 276.632812 C 602.941406 279.414062 605.277344 280.972656 608.617188 281.304688 C 612.066406 281.640625 616.628906 280.636719 622.078125 278.300781 L 622.191406 278.191406 C 627.085938 277.632812 630.757812 278.191406 633.207031 279.96875 C 635.542969 281.863281 636.65625 284.976562 636.433594 289.207031 L 633.539062 322.8125 C 633.652344 324.367188 633.652344 325.816406 633.429688 327.039062 C 632.984375 330.042969 631.648438 332.378906 629.535156 334.050781 C 627.421875 335.605469 624.527344 336.496094 620.855469 336.832031 C 618.074219 336.941406 614.957031 336.71875 611.285156 336.164062 C 607.835938 336.71875 605.609375 337.945312 604.832031 339.722656 C 603.941406 341.503906 604.5 344.0625 606.390625 347.179688 L 606.390625 347.289062 C 613.289062 362.757812 619.074219 378.449219 623.859375 394.359375 C 628.644531 410.160156 632.316406 426.183594 634.988281 442.429688 L 635.097656 442.542969 C 634.988281 444.878906 635.097656 446.992188 635.542969 448.773438 C 636.101562 451.21875 637.101562 453.113281 638.546875 454.335938 C 639.996094 455.558594 641.886719 456.226562 644.335938 456.339844 C 645.78125 456.449219 647.5625 456.226562 649.453125 455.78125 L 649.5625 455.78125 C 659.132812 458.007812 668.035156 460.789062 676.269531 464.351562 C 684.617188 467.800781 692.183594 472.027344 699.191406 476.925781 C 706.535156 484.046875 710.652344 489.832031 711.433594 494.0625 C 712.324219 498.511719 709.761719 501.40625 703.976562 502.851562 L 576.792969 574.066406 C 569.78125 579.40625 564.550781 581.746094 560.992188 581.078125 C 557.429688 580.296875 555.648438 576.402344 555.871094 569.394531 C 555.871094 566.832031 555.761719 564.386719 555.425781 562.382812 C 554.648438 557.933594 553.199219 554.703125 551.085938 552.589844 C 548.863281 550.367188 545.96875 549.253906 542.296875 549.253906 C 541.074219 549.253906 539.847656 549.363281 538.511719 549.585938 C 509.691406 552.035156 186.109375 553.371094 174.535156 550.585938 C 170.417969 549.476562 167.972656 547.359375 167.191406 544.355469 Z M 94.199219 270.066406 C 91.859375 270.066406 89.859375 268.175781 89.859375 265.726562 C 89.859375 263.390625 91.859375 261.386719 94.199219 261.386719 L 192.453125 261.386719 C 194.789062 261.386719 196.792969 263.390625 196.792969 265.726562 C 196.792969 268.175781 194.789062 270.066406 192.453125 270.066406 Z M 31.4375 525.886719 C 29.101562 525.886719 27.097656 523.882812 27.097656 521.546875 C 27.097656 519.097656 29.101562 517.207031 31.4375 517.207031 L 160.292969 517.207031 C 162.628906 517.207031 164.632812 519.097656 164.632812 521.546875 C 164.632812 523.882812 162.628906 525.886719 160.292969 525.886719 Z M 53.695312 484.269531 C 51.246094 484.269531 49.355469 482.265625 49.355469 479.929688 C 49.355469 477.480469 51.246094 475.476562 53.695312 475.476562 L 182.4375 475.476562 C 184.886719 475.476562 186.777344 477.480469 186.777344 479.929688 C 186.777344 482.265625 184.886719 484.269531 182.4375 484.269531 Z M 109.21875 445.324219 C 106.769531 445.324219 104.878906 443.429688 104.878906 440.984375 C 104.878906 438.648438 106.769531 436.644531 109.21875 436.644531 L 237.960938 436.644531 C 240.410156 436.644531 242.300781 438.648438 242.300781 440.984375 C 242.300781 443.429688 240.410156 445.324219 237.960938 445.324219 Z M 43.234375 348.515625 C 40.898438 348.515625 38.894531 346.625 38.894531 344.175781 C 38.894531 341.839844 40.898438 339.835938 43.234375 339.835938 L 171.976562 339.835938 C 174.425781 339.835938 176.429688 341.839844 176.429688 344.175781 C 176.429688 346.625 174.425781 348.515625 171.976562 348.515625 Z M 64.042969 308.789062 C 61.59375 308.789062 59.589844 306.898438 59.589844 304.449219 C 59.589844 302.113281 61.59375 300.109375 64.042969 300.109375 L 184.886719 300.109375 C 187.332031 300.109375 189.335938 302.113281 189.335938 304.449219 C 189.335938 306.898438 187.332031 308.789062 184.886719 308.789062 Z M 681.054688 530.113281 C 699.414062 520.542969 706.648438 514.203125 706.648438 514.203125 L 706.980469 513.867188 L 707.316406 514.3125 C 719.890625 532.117188 722.894531 553.703125 718.332031 574.289062 C 713.546875 595.652344 700.527344 616.015625 681.5 629.925781 C 675.492188 634.378906 669.257812 637.828125 662.804688 640.164062 C 648.675781 645.503906 634.097656 645.726562 620.746094 641.5 C 607.28125 637.160156 594.929688 628.257812 585.246094 615.125 C 580.351562 608.339844 576.011719 600.4375 572.675781 591.535156 L 572.5625 591.203125 L 601.382812 572.730469 L 601.492188 573.398438 C 604.054688 583.859375 608.058594 591.980469 612.957031 597.992188 C 617.960938 604.222656 623.972656 608.226562 630.425781 610.230469 C 636.769531 612.234375 643.667969 612.234375 650.34375 610.5625 C 657.242188 608.894531 663.917969 605.445312 670.039062 600.550781 C 670.929688 599.769531 671.929688 598.992188 672.820312 598.101562 C 681.054688 590.535156 688.289062 579.964844 691.070312 568.503906 C 693.851562 556.929688 692.183594 544.46875 682.945312 533.117188 L 680.609375 530.335938 Z M 522.15625 214.652344 C 503.015625 205.304688 488.441406 197.628906 478.535156 191.398438 C 468.523438 185.164062 463.070312 180.601562 462.289062 177.488281 C 457.617188 164.246094 458.0625 150.226562 462.734375 137.875 C 467.519531 125.523438 476.535156 114.730469 488.996094 108.050781 C 501.347656 101.375 515.257812 99.707031 528.164062 102.601562 C 541.074219 105.382812 553.089844 112.726562 561.546875 123.964844 L 561.546875 124.074219 C 567 132.976562 569.890625 140.097656 570.226562 145.328125 C 570.671875 150.78125 568.445312 154.230469 563.550781 155.789062 L 563.328125 155.789062 C 559.542969 155.457031 555.425781 154.34375 550.753906 152.5625 C 546.191406 150.78125 541.183594 148.332031 535.730469 145.105469 C 531.949219 142.992188 528.722656 142.4375 526.050781 143.328125 C 523.378906 144.328125 521.152344 147 519.484375 151.117188 C 517.371094 160.351562 516.59375 167.695312 517.257812 173.257812 C 517.925781 178.710938 519.929688 182.382812 523.378906 184.273438 C 529.609375 187.835938 534.507812 191.175781 538.179688 194.402344 C 541.738281 197.40625 544.078125 200.410156 545.1875 203.082031 C 546.300781 205.972656 546.191406 208.53125 544.855469 210.980469 C 544.523438 211.535156 544.078125 212.203125 543.632812 212.761719 C 540.515625 215.988281 537.175781 217.769531 533.503906 217.992188 C 529.945312 218.324219 526.160156 217.210938 522.15625 214.652344 Z M 213.707031 241.582031 C 215.929688 232.121094 220.046875 227.003906 226.167969 226.003906 C 314.519531 226.335938 358.804688 226.449219 358.804688 226.449219 C 367.375 229.007812 371.046875 235.015625 369.710938 244.472656 C 355.46875 328.261719 348.347656 370.101562 348.347656 370.101562 C 347.121094 379.558594 343.226562 384.34375 336.550781 384.457031 C 244.527344 384.679688 198.460938 384.789062 198.460938 384.789062 C 190.449219 383.453125 187.445312 377.667969 189.449219 367.542969 C 205.582031 283.53125 213.707031 241.582031 213.707031 241.582031 Z M 208.253906 557.710938 C 208.253906 557.710938 217.601562 560.046875 238.183594 560.046875 L 238.742188 560.046875 L 237.960938 563.605469 C 234.957031 577.960938 239.296875 589.867188 246.976562 598.769531 C 254.765625 607.78125 266.003906 613.792969 276.796875 616.683594 C 278.019531 617.019531 279.246094 617.351562 280.359375 617.574219 C 288.035156 619.132812 295.601562 619.132812 302.5 617.464844 C 309.179688 615.90625 315.296875 612.789062 320.082031 608.003906 C 324.867188 603.332031 328.316406 596.988281 329.984375 589.199219 C 331.542969 581.632812 331.320312 572.507812 328.761719 562.050781 L 328.652344 561.382812 C 340 562.496094 351.351562 563.605469 362.699219 564.609375 L 362.699219 564.941406 C 363.8125 574.402344 363.703125 583.414062 362.367188 591.648438 C 359.808594 607.78125 352.910156 621.359375 343.003906 631.371094 C 332.992188 641.386719 319.972656 647.730469 304.949219 649.511719 C 298.160156 650.289062 291.039062 650.179688 283.585938 649.066406 C 260.328125 645.394531 239.519531 633.265625 225.390625 616.460938 C 211.925781 600.328125 204.691406 579.742188 207.695312 558.042969 L 207.808594 557.597656 Z M 441.703125 343.285156 C 443.039062 345.511719 445.710938 347.179688 449.714844 348.179688 C 473.863281 357.082031 498.898438 370.214844 523.046875 379.894531 C 528.5 383.121094 531.726562 386.90625 532.839844 391.578125 C 533.949219 396.140625 532.949219 401.480469 529.832031 407.488281 L 489.886719 507.746094 C 488.886719 510.972656 488.550781 513.644531 488.886719 515.871094 C 489.21875 517.875 490.21875 519.429688 491.890625 520.65625 L 518.039062 521.324219 C 541.628906 512.308594 558.320312 492.726562 568.445312 462.570312 C 578.460938 432.191406 581.6875 391.242188 578.125 339.5 C 578.238281 332.269531 577.234375 326.816406 575.011719 322.8125 C 572.785156 319.027344 569.445312 316.691406 564.996094 315.910156 L 496.5625 310.90625 C 492.558594 309.792969 488.996094 307.453125 485.878906 304.003906 C 482.652344 300.554688 479.984375 295.882812 477.644531 289.984375 C 477.203125 288.316406 476.199219 287.09375 474.863281 286.203125 C 473.640625 285.3125 472.082031 284.753906 470.414062 284.867188 C 468.746094 284.976562 467.1875 285.644531 466.074219 286.648438 C 464.851562 287.757812 464.070312 289.09375 463.738281 290.765625 C 463.625 291.988281 444.152344 329.933594 441.816406 334.605469 C 440.480469 338.167969 440.480469 341.058594 441.703125 343.285156 Z M 441.703125 343.285156 " fill-opacity="1" fill-rule="evenodd"/></g></svg>